<svg width="256" height="256" viewBox="0 0 256 256" fill="none" xmlns="http://www.w3.org/2000/svg">
<rect width="256" height="256" fill="#00614C"/>
<g clip-path="url(#clip0_1037_1643)">
<path fill-rule="evenodd" clip-rule="evenodd" d="M108.155 31.28C109.721 31.28 110.99 32.5489 110.99 34.1142C110.99 43.1059 116.331 56.5676 126.669 67.6077C127.891 68.9132 129.099 70.1508 130.275 71.3564C134.218 75.399 137.811 79.0816 140.447 83.7571C143.979 90.0241 145.815 97.9574 145.815 111.008C145.815 122.667 143.293 134.381 135.393 142.497C127.391 150.717 114.518 154.608 95.3021 151.988C89.1761 151.152 83.3278 149.962 77.9985 148.877C75.1573 148.299 72.4636 147.751 69.9539 147.302C62.5046 145.971 56.4909 145.471 51.4562 146.879C46.6321 148.227 42.3612 151.435 38.6423 158.405C34.8596 165.495 31.7292 176.343 29.3365 192.669C29.1096 194.218 27.6701 195.29 26.1214 195.063C24.5727 194.836 23.5012 193.396 23.7282 191.847C26.1536 175.298 29.3999 163.686 33.6414 155.737C37.9466 147.668 43.3471 143.26 49.9304 141.42C56.303 139.638 63.4326 140.379 70.951 141.722C73.7267 142.218 76.5412 142.792 79.4385 143.383C84.6313 144.443 90.0901 145.556 96.068 146.372C114.263 148.853 125.037 145.009 131.331 138.543C137.726 131.974 140.147 122.051 140.147 111.008C140.147 98.4609 138.375 91.6247 135.509 86.5406C133.268 82.566 130.36 79.5798 126.567 75.6848C125.32 74.4046 123.977 73.0261 122.531 71.4821C111.472 59.672 105.321 44.8877 105.321 34.1142C105.321 32.5489 106.59 31.28 108.155 31.28Z" fill="white"/>
<path d="M189.994 100.592C188.042 89.9597 183.831 81.4949 179.628 75.0172C190.982 75.5006 199.122 77.5648 204.949 81.4348C211.537 85.8107 215.615 92.8067 217.713 103.821C219.036 110.768 218.5 126.585 213.569 143.407C208.649 160.19 199.52 177.404 184.161 187.682C164.088 201.117 146.613 203.827 132.726 201.787C123.003 200.359 114.914 196.584 108.826 192.35C135.597 193.384 168.051 182.911 182.313 150.822C191.28 130.646 192.457 114.009 189.994 100.592Z" fill="white"/>
<path fill-rule="evenodd" clip-rule="evenodd" d="M126.442 31.2994C127.997 31.1178 129.404 32.2309 129.586 33.7856C130.672 43.086 134.98 48.2794 140.915 53.0763C142.893 54.6755 144.958 56.1588 147.161 57.7422C148.405 58.6359 149.693 59.5614 151.035 60.5576C154.667 63.2535 158.465 66.3111 162.066 70.1911C168.921 77.5767 174.174 84.8747 177.156 93.7163C180.142 102.569 180.768 112.711 178.808 125.675C177.52 134.2 172.911 148.234 162.207 160.189C151.417 172.24 134.547 182.039 109.124 182.039C99.2968 182.039 90.6184 179.962 83.1686 177.99C82.3431 177.772 81.5374 177.556 80.7508 177.346C74.2532 175.608 69.0472 174.215 64.5399 174.315C62.1218 174.369 60.0438 174.863 58.1833 175.924C56.3185 176.988 54.4912 178.725 52.7381 181.54C49.167 187.275 46.122 197.119 43.7237 213.484C43.4967 215.033 42.0573 216.104 40.5086 215.877C38.9599 215.65 37.8884 214.211 38.1153 212.662C40.5351 196.151 43.7051 185.324 47.9263 178.544C50.0693 175.102 52.5325 172.621 55.3751 171C58.2219 169.377 61.2681 168.719 64.4135 168.649C69.7929 168.529 75.8619 170.16 82.1657 171.855C82.9799 172.073 83.798 172.293 84.619 172.511C91.9917 174.462 100.074 176.371 109.124 176.371C132.897 176.371 148.244 167.287 157.985 156.408C167.811 145.434 172.045 132.491 173.204 124.827C175.07 112.48 174.405 103.295 171.785 95.5281C169.162 87.7505 164.493 81.1379 157.912 74.0472C154.65 70.5332 151.165 67.713 147.657 65.1089C146.475 64.2319 145.261 63.359 144.047 62.4857C141.746 60.8308 139.442 59.1743 137.352 57.4846C130.709 52.1156 125.271 45.7006 123.956 34.4433C123.774 32.8886 124.887 31.4811 126.442 31.2994Z" fill="white"/>
<path fill-rule="evenodd" clip-rule="evenodd" d="M170.92 76.5016C171.507 77.2344 171.389 78.3046 170.656 78.8919L164.606 83.741C163.873 84.3283 162.803 84.2103 162.216 83.4775C161.628 82.7447 161.746 81.6745 162.479 81.0872L168.529 76.2381C169.262 75.6508 170.332 75.7687 170.92 76.5016Z" fill="white"/>
<path fill-rule="evenodd" clip-rule="evenodd" d="M178.406 89.4904C178.745 90.366 178.311 91.3511 177.435 91.6907L170.206 94.4942C169.331 94.8338 168.346 94.3993 168.006 93.5237C167.666 92.6481 168.101 91.663 168.976 91.3234L176.205 88.5198C177.081 88.1802 178.066 88.6148 178.406 89.4904Z" fill="white"/>
<path fill-rule="evenodd" clip-rule="evenodd" d="M182.367 104.062C182.463 104.996 181.785 105.832 180.85 105.929L173.138 106.729C172.204 106.825 171.368 106.147 171.271 105.213C171.175 104.278 171.853 103.443 172.788 103.346L180.5 102.546C181.434 102.449 182.27 103.128 182.367 104.062Z" fill="white"/>
<path fill-rule="evenodd" clip-rule="evenodd" d="M182.617 120.392C182.53 121.327 181.701 122.015 180.766 121.927L173.046 121.205C172.111 121.118 171.423 120.289 171.511 119.354C171.598 118.419 172.427 117.732 173.362 117.819L181.082 118.541C182.017 118.628 182.704 119.457 182.617 120.392Z" fill="white"/>
<path fill-rule="evenodd" clip-rule="evenodd" d="M178.861 136.983C178.576 137.878 177.62 138.373 176.725 138.088L169.336 135.737C168.441 135.452 167.947 134.496 168.232 133.601C168.516 132.706 169.473 132.211 170.368 132.496L177.756 134.847C178.651 135.132 179.146 136.089 178.861 136.983Z" fill="white"/>
<path fill-rule="evenodd" clip-rule="evenodd" d="M170.671 154.835C170.153 155.618 169.098 155.834 168.314 155.316L161.846 151.041C161.062 150.523 160.847 149.468 161.365 148.685C161.883 147.901 162.937 147.686 163.721 148.204L170.19 152.479C170.973 152.996 171.188 154.051 170.671 154.835Z" fill="white"/>
<path fill-rule="evenodd" clip-rule="evenodd" d="M159.07 166.889C158.415 167.562 157.338 167.576 156.665 166.921L151.111 161.511C150.438 160.856 150.424 159.779 151.079 159.107C151.734 158.434 152.811 158.419 153.484 159.075L159.038 164.484C159.711 165.14 159.725 166.216 159.07 166.889Z" fill="white"/>
<path fill-rule="evenodd" clip-rule="evenodd" d="M144.918 177.136C144.07 177.54 143.055 177.18 142.651 176.332L139.315 169.333C138.911 168.485 139.271 167.47 140.119 167.066C140.967 166.662 141.981 167.022 142.385 167.87L145.721 174.869C146.125 175.717 145.766 176.732 144.918 177.136Z" fill="white"/>
<path fill-rule="evenodd" clip-rule="evenodd" d="M103.912 183.944C102.973 183.963 102.196 183.217 102.178 182.278L102.024 174.526C102.005 173.587 102.751 172.811 103.69 172.792C104.629 172.773 105.405 173.52 105.424 174.458L105.578 182.211C105.597 183.149 104.851 183.926 103.912 183.944Z" fill="white"/>
<path fill-rule="evenodd" clip-rule="evenodd" d="M127.088 182.758C126.194 183.045 125.236 182.554 124.949 181.66L122.575 174.278C122.287 173.384 122.779 172.427 123.673 172.139C124.567 171.851 125.525 172.343 125.812 173.237L128.187 180.618C128.474 181.512 127.982 182.47 127.088 182.758Z" fill="white"/>
</g>
<defs>
<clipPath id="clip0_1037_1643">
<rect width="207" height="207" fill="white" transform="translate(24 23)"/>
</clipPath>
</defs>
</svg>
