<?xml version="1.0" encoding="UTF-8"?>
<svg id="katman_1" xmlns="http://www.w3.org/2000/svg" viewBox="0 0 65.76 70.38">
  <defs>
    <style>
      .cls-1 {
        fill: #ACA09B;
      }
    </style>
  </defs>
  <path class="cls-1" d="M55.87.62c.32.1.64.19.95.31,1.96.8,3.09,2.27,3.2,4.37.11,2.06-.81,3.68-2.67,4.63-2.83,1.43-5.7,2.79-8.55,4.18-1.25.61-2.53,1.19-3.76,1.84-.95.5-1.83.59-2.63-.16-1.1.35-1.81.97-2,2.14-.15.89-.76,1.47-1.56,1.91-1.62.89-3.22,1.79-5.11,2.02-2.54.31-4.88-.21-7.02-1.61-.96-.63-.92-1.46.09-2.02,4.13-2.3,8.26-4.61,12.39-6.9.33-.19.55-.32.49-.8-.09-.67.25-1.22.83-1.59,2-1.27,3.99-2.54,6-3.79.58-.36,1.17-.23,1.47.28.31.51.17,1.06-.42,1.44-1.67,1.07-3.35,2.12-5.02,3.18-.25.16-.49.31-.76.49.7,1.24,1.37,2.46,2.08,3.71,1.29-.63,2.54-1.23,3.79-1.84,2.85-1.39,5.71-2.77,8.56-4.16,1.4-.69,2.05-1.94,1.74-3.3-.44-1.96-2.53-2.9-4.27-1.92-.84.48-1.64,1.03-2.47,1.53-.64.39-1.21.32-1.55-.18-.35-.52-.19-1.14.48-1.52,1.36-.77,2.74-1.5,4.12-2.25.54,0,1.08,0,1.62,0ZM29.11,19.27c1.49.6,2.85.76,4.26.61,1.59-.18,2.93-.95,4.3-1.7.47-.26.78-.57.88-1.1.25-1.33.98-2.29,2.26-2.8.18-.07.34-.2.54-.33-.24-.4-.45-.75-.67-1.12-3.86,2.15-7.64,4.26-11.58,6.45Z"/>
  <path class="cls-1" d="M14.33.62c.23.41.6.79.68,1.22.57,3.02,1.01,6.07,1.63,9.08.27,1.33.84,2.6,1.3,3.89.26.74.12,1.31-.44,1.56-.6.27-1.15,0-1.44-.8-.54-1.45-1.05-2.91-1.58-4.39-.1.03-.24.09-.39.12-.5.09-.98-.04-1.11-.52-.09-.35-.04-.98.18-1.13.94-.63.83-1.42.67-2.34-.32-1.74-.54-3.51-.83-5.26-.11-.65.13-1.08.65-1.42.23,0,.45,0,.68,0Z"/>
  <path class="cls-1" d="M23.68,61.26c.43.37.94.77,1.42,1.22,1.36,1.3,1.69,3.31.85,4.96-.84,1.65-2.68,2.59-4.52,2.24-1.57-.3-3.13-.65-4.68-1.01-.82-.19-1.19-.7-1.03-1.3.17-.62.72-.84,1.53-.66,1.45.33,2.9.65,4.35.95,1.12.23,2.12-.25,2.56-1.17.46-.97.23-2.06-.72-2.76-.83-.61-1.4-1.74-2.53-1.74-1.02,0-2.04.32-3.06.5-2.57.46-5.14.92-7.84,1.4.22.14.34.24.48.31.93.41,1.86.79,2.79,1.21.61.27.84.84.61,1.37-.22.5-.78.75-1.38.48-2.09-.95-4.17-1.91-6.23-2.92-.28-.14-.58-.62-.55-.89.05-.35.36-.78.68-.96,2.54-1.46,5.19-2.73,7.63-4.32,2.89-1.87,5.61-3.99,8.38-6.04.23-.17.39-.58.41-.89.06-.9-.03-1.8.06-2.7.22-2.23,1.34-3.92,3.25-5.1,1.57-.97,3.16-1.91,4.71-2.91,1.83-1.2,2.43-3.46,1.43-5.34-.22-.41-.52-.79-.85-1.12-2.01-1.98-4.04-3.93-6.05-5.9-.27-.26-.48-.37-.8-.1-.15.13-.34.23-.52.3-.5.19-.95.11-1.25-.35-.31-.48-.23-.94.2-1.33.13-.12.29-.21.39-.29-1.15-1.34-2.33-2.63-3.42-4-.7-.88-1.29-1.84-1.89-2.79-.35-.54-.2-1.12.27-1.42.5-.32,1.11-.19,1.45.39,1.78,3.02,4.19,5.51,6.71,7.9,2.07,1.97,4.12,3.98,6.16,5.98,3.2,3.13,2.7,7.68-1.1,10.03-1.42.88-2.83,1.76-4.26,2.61-1.65.99-2.46,2.44-2.44,4.36,0,.23.01.45,0,.68-.06,1.06.12,2.03.59,3.04.9,1.91.97,3.95-.03,5.86-.42.81-1.15,1.46-1.77,2.24ZM23.65,53.96c-3.5,2.46-6.95,4.88-10.38,7.3,2.76-.5,5.58-.96,8.38-1.53,1.13-.23,1.92-1.02,2.24-2.13.36-1.24.28-2.49-.24-3.63Z"/>
  <path class="cls-1" d="M15.08,38.1c.14-.46.36-1.35.67-2.22.19-.54.78-.77,1.28-.55.52.23.75.64.6,1.2-.1.37-.24.73-.35,1.09-.39,1.24-.11,2.3.85,3.18.27.24.56.46.79.73.34.42.32.89-.04,1.29-.34.38-.78.44-1.23.19-1.49-.79-2.62-2.75-2.57-4.93Z"/>
  <path class="cls-1" d="M12.82,12.72c-.18.39-.29.64-.41.87-.43.81-.89,1.6-1.31,2.42-.34.67-.83.92-1.39.68-.56-.24-.79-.83-.47-1.47.49-.98,1.03-1.94,1.58-2.88.25-.43.69-.66,1.15-.43.34.17.57.53.85.81Z"/>
  <path class="cls-1" d="M11.54,24.04c.36.23.66.38.9.59.71.59,1.38,1.21,2.1,1.79.56.45.73.95.42,1.45-.32.52-.97.68-1.53.24-.9-.7-1.77-1.46-2.56-2.27-.21-.22-.24-.77-.14-1.1.09-.27.49-.44.81-.7Z"/>
  <path class="cls-1" d="M18.89,29.73c-.55-.06-1.2-.1-1.84-.22-.61-.11-.93-.62-.82-1.19.1-.52.58-.82,1.16-.8.99.04,1.98.06,2.96.06.66,0,1.1.3,1.16.87.07.58-.25,1.01-.91,1.12-.53.09-1.07.11-1.72.16Z"/>
  <path class="cls-1" d="M8.48,19.7c0-.29-.04-.59,0-.87.09-.54.45-.81.99-.8.51,0,.86.28.95.79.19,1.1.37,2.2.53,3.3.09.58-.24,1.07-.78,1.16-.56.1-1-.14-1.15-.69-.26-.94-.45-1.91-.67-2.86.04,0,.08-.02.11-.02Z"/>
  <path class="cls-1" d="M28.64,36.66c.68-.01,1.09.3,1.16.87.07.6-.3,1.07-.98,1.14-.76.07-1.31.33-1.66,1.06-.25.52-.77.6-1.28.39-.49-.2-.68-.76-.48-1.31.45-1.25,1.75-2.11,3.24-2.14Z"/>
  <path class="cls-1" d="M55.33,4.41c.56,0,1.01.48.99,1.05-.02.59-.88,1.29-1.58,1.28-.53,0-.99-.44-1.01-.97-.02-.6.89-1.37,1.6-1.36Z"/>
</svg>