<?xml version="1.0" encoding="UTF-8"?>
<svg id="katman_1" xmlns="http://www.w3.org/2000/svg" viewBox="0 0 64.9 68.09">
  <defs>
    <style>
      .cls-1 {
        fill: #ACA09B;
      }
    </style>
  </defs>
  <path class="cls-1" d="M42.8,7c-.27,6.45-2.23,12.32-6.42,17.26-3.98,4.7-8.19,9.21-12.3,13.8-1.65,1.84-3.33,3.65-4.93,5.53-2.21,2.58-1.86,7.25.74,9.44.64.54,1.52.89,2.35,1.09,4.01.98,8.06,1.79,12.04,2.86,1.79.48,3.54,1.3,5.16,2.21,2.24,1.25,2.99,3.4,2.22,5.84-.27.85-.75,1.64-1.23,2.39-.48.75-1.32.86-1.98.39-.65-.45-.76-1.26-.32-2.02.32-.54.66-1.1.85-1.69.35-1.09,0-1.9-.96-2.51-1.78-1.12-3.75-1.8-5.77-2.29-3.42-.83-6.84-1.65-10.29-2.32-3.9-.75-5.97-3.22-6.81-6.88-.76-3.3-.11-6.3,2.24-8.86,1.57-1.71,3.13-3.43,4.65-5.19.39-.46.63-1.06.88-1.63.18-.42.26-.89.39-1.33.31-1.04.99-1.39,2.02-1.08.17.05.45.03.55-.08,3.71-4.06,7.66-7.94,10.54-12.67,1.92-3.14,3.11-6.61,3.33-10.29.06-1.06,0-2.12.1-3.21.1-1.19-.35-2.44-.64-3.65-.25-1.02-.01-1.75.83-2.05.82-.29,1.52.13,1.88,1.14.66,1.87.9,3.8.91,5.77Z"/>
  <path class="cls-1" d="M38.65,45.6c6.45.3,11.61,3.55,15.17,9.44.23.38.42.78.66,1.14.55.82,1,.98,1.76.4,2.92-2.23,5.11-4.98,5.75-8.71.26-1.5-.25-2.85-1.16-4.04-1.23-1.62-2.91-2.67-4.67-3.6-.58-.31-1.2-.55-1.78-.86-.75-.39-1.03-1.13-.72-1.85.3-.7,1.08-1.04,1.84-.72,2.38,1,4.62,2.24,6.48,4.07,2.94,2.89,3.67,6.31,2.12,10.14-1.18,2.92-3.08,5.33-5.47,7.34-.67.56-1.53.96-2.37,1.25-1.17.41-2.29.07-3.19-.76-.46-.43-.99-.91-1.18-1.47-.63-1.94-1.93-1.93-3.64-1.71-3.69.47-7.38.34-10.97-.77-1.89-.58-3.62-1.49-5.04-2.89-2.04-2.01-1.61-4.41,1.02-5.58,1.55-.69,3.23-.73,5.39-.81ZM33.83,49.31c-.02.09-.04.18-.06.27.6.47,1.17,1,1.81,1.4,4,2.43,8.39,2.13,12.86,1.87-.1-.17-.12-.24-.17-.28-3.76-3.39-8.13-4.74-13.14-3.8-.45.08-.87.36-1.31.54Z"/>
  <path class="cls-1" d="M14.84,21.97c1.83-1.64,3.52-3.15,5.26-4.71-1.73-1.55-3.42-3.06-5.2-4.66-.03.32-.05.52-.06.72-.02,1.23-.51,1.72-1.75,1.73-.93.01-1.86,0-2.79,0-2.76,0-5.53,0-8.29,0-.29,0-.59,0-.87-.07C.46,14.85,0,14.3,0,13.65c0-.68.46-1.26,1.17-1.4.26-.05.53-.05.8-.05,3.06,0,6.12,0,9.17,0,.26,0,.53,0,.88,0,0-.92.02-1.77,0-2.62-.02-.68.23-1.21.85-1.49.6-.26,1.14-.1,1.62.33,2.86,2.56,5.73,5.11,8.58,7.69.79.72.79,1.57,0,2.28-2.87,2.59-5.75,5.16-8.64,7.73-.45.41-.98.55-1.56.29-.6-.27-.86-.76-.85-1.41,0-.87,0-1.75,0-2.71-.33,0-.59,0-.85,0-3.2,0-6.41,0-9.61,0-.65,0-1.23-.22-1.39-.84-.11-.44-.05-1.05.18-1.41.2-.31.77-.53,1.18-.54,3.91-.04,7.83-.03,11.74-.02,1.03,0,1.53.51,1.56,1.53,0,.24,0,.49,0,.95Z"/>
  <path class="cls-1" d="M30.3,38.81c-.44-.37-.9-.62-1.16-1-.35-.51-.21-1.09.19-1.56.61-.7,1.28-1.35,1.88-2.06,2.93-3.44,5.84-6.89,8.75-10.35.6-.71,1.39-.91,2.05-.44.69.49.84,1.38.22,2.13-2.64,3.2-5.31,6.39-7.99,9.55-.85,1.01-1.77,1.96-2.7,2.9-.31.31-.74.49-1.25.81Z"/>
  <path class="cls-1" d="M42.42,19.7c.04-.11.1-.34.19-.57.56-1.56,1.14-3.11,1.68-4.68.34-.98,1.02-1.46,1.84-1.21.83.25,1.2,1.03.87,2.02-.58,1.73-1.2,3.45-1.86,5.15-.3.77-.99,1.07-1.72.86-.63-.18-1.03-.76-.99-1.57Z"/>
  <path class="cls-1" d="M34.32,14.46c-.36-.27-.9-.47-1.07-.84-.19-.4-.23-1.09,0-1.42.64-.91,1.42-1.73,2.22-2.51.51-.5,1.28-.41,1.8.07.51.47.66,1.24.22,1.79-.68.85-1.43,1.66-2.19,2.45-.2.21-.55.27-.97.46Z"/>
  <path class="cls-1" d="M32.62,17.72c-.05.15-.12.43-.25.69-.39.75-.81,1.5-1.23,2.24-.46.8-1.25,1.07-1.97.69-.72-.38-.95-1.2-.52-2.02.44-.84.89-1.68,1.39-2.48.36-.58.93-.77,1.59-.56.63.2.94.66.99,1.45Z"/>
  <path class="cls-1" d="M24.93,27.85c.5-1.18.93-2.4,1.53-3.52.31-.58,1.03-.62,1.64-.33.61.3.96.85.76,1.5-.33,1.07-.73,2.12-1.21,3.13-.28.6-.89.83-1.56.63-.66-.19-1-.66-1.16-1.41Z"/>
</svg>