<?xml version="1.0" encoding="UTF-8"?>
<svg id="katman_1" xmlns="http://www.w3.org/2000/svg" viewBox="0 0 65.76 70.38">
  <defs>
    <style>
      .cls-1 {
        fill: #ACA09B;
      }
    </style>
  </defs>
  <path class="cls-1" d="M.5,52.6c.13-.72.25-1.45.41-2.16.48-2.09,1.3-4.03,2.47-5.83.42-.65.84-1.31,1.28-2.01.77.44,1.53.87,2.33,1.33-.45.71-.85,1.37-1.28,2.02-2.34,3.57-3.16,7.49-2.24,11.63,1.31,5.91,8.16,8.97,13.73,6.2,1.29-.64,2.44-1.56,3.61-2.42,2.6-1.91,5.16-3.86,7.74-5.78,2.75-2.05,5.91-2.04,8.65,0,3.27,2.45,6.51,4.93,9.82,7.33,4.87,3.53,11.83,1.92,14.51-3.29,1.05-2.05,1.16-4.24.99-6.46-.21-2.77-1.26-5.21-2.7-7.57-1.42-2.33-2.68-4.76-3.82-7.24-2.15-4.67-4.17-9.41-6.24-14.12-.09-.21-.16-.42-.25-.7.84-.32,1.63-.62,2.48-.94.13.29.24.53.34.78,2.39,6.09,5.16,12,8.05,17.86.54,1.09,1.18,2.13,1.85,3.15,1.56,2.38,2.56,4.96,2.9,7.78.02.14.07.28.11.42v4.04c-.04.14-.1.28-.12.42-.26,1.91-.94,3.65-2.06,5.23-4.02,5.68-12.04,6.92-17.77,2.72-3.29-2.41-6.54-4.89-9.81-7.33-1.7-1.27-3.56-1.26-5.25,0-1.37,1.02-2.72,2.05-4.09,3.06-2.18,1.62-4.27,3.37-6.57,4.81-7.26,4.56-16.79.77-18.77-7.38-.12-.51-.22-1.02-.32-1.53,0-1.35,0-2.69,0-4.04Z"/>
  <path class="cls-1" d="M34.15,2.87c1.36.35,2.77.56,4.07,1.07,4.45,1.75,7.64,4.96,10.09,8.99,1.31,2.16,2.12,4.52,2.75,7.03-.82.27-1.64.54-2.52.83-.29-.97-.53-1.91-.86-2.81-1.62-4.5-4.32-8.17-8.49-10.61-4.32-2.53-8.68-2.42-12.92.19-3.99,2.46-6.75,6-8.14,10.43-1.58,5.07-3.58,9.96-5.76,14.78-1.2,2.66-2.47,5.29-3.71,7.93-.06.13-.13.26-.23.44-.8-.39-1.58-.77-2.4-1.16.9-1.91,1.79-3.77,2.65-5.63,2.2-4.79,4.44-9.57,6.04-14.61.81-2.55,1.6-5.08,3.07-7.36,2.55-3.96,5.83-7.07,10.35-8.67,1.12-.4,2.32-.57,3.48-.85.84,0,1.69,0,2.53,0Z"/>
  <path class="cls-1" d="M13.98,49.54c.17-4.35,1.32-7.97,2.91-11.48.97-2.15,2.09-4.24,3.72-5.97.72-.77,1.58-1.47,2.51-1.96,1.57-.82,3.12-.15,3.84,1.47.61,1.38.63,2.84.46,4.28-.66,5.64-2.63,10.8-6.09,15.33-.68.9-1.6,1.69-2.56,2.3-1.82,1.15-3.71.41-4.36-1.64-.28-.89-.34-1.84-.43-2.33ZM17.13,51.45c.37-.25.7-.41.94-.66.62-.66,1.26-1.31,1.77-2.04,2.39-3.48,3.93-7.32,4.66-11.46.24-1.34.18-2.75.14-4.13-.02-.74-.36-.85-.93-.35-.6.52-1.19,1.08-1.65,1.72-2.98,4.14-4.76,8.76-5.33,13.83-.11.99-.14,2.01.39,3.09Z"/>
  <path class="cls-1" d="M51.87,49.14c-.17.92-.24,1.88-.53,2.77-.66,2.02-2.53,2.75-4.32,1.61-1.01-.64-1.97-1.48-2.68-2.44-3.54-4.81-5.66-10.19-6.01-16.18-.06-1,.1-2.07.4-3.03.61-1.93,2.4-2.58,4.2-1.64,1.31.68,2.28,1.73,3.1,2.91,3.11,4.43,5,9.35,5.66,14.73.05.41,0,.84,0,1.26.05,0,.11.01.16.02ZM48.67,51.47c.56-1.18.48-2.24.36-3.27-.57-4.87-2.28-9.32-5.08-13.34-.55-.78-1.27-1.45-1.99-2.09-.5-.45-.78-.33-.85.35-.09.87-.14,1.76-.06,2.63.27,3,1.21,5.83,2.43,8.57.98,2.22,2.12,4.35,3.85,6.09.37.38.84.66,1.34,1.06Z"/>
  <path class="cls-1" d="M6.9,30.66c-.64-.64-1.25-1.24-1.93-1.92.52-.48,1.07-.98,1.75-1.61H1.91v-2.67h4.57s.06-.1.09-.15c-.53-.54-1.05-1.07-1.55-1.58.64-.64,1.25-1.25,1.84-1.84,1.36,1.32,2.77,2.66,4.13,4.06.48.49.41,1.24-.12,1.77-1.31,1.33-2.65,2.64-3.97,3.94Z"/>
  <path class="cls-1" d="M58.89,20.81c.61.63,1.2,1.24,1.87,1.93-.51.45-1.07.95-1.63,1.45.04.06.07.12.11.19h4.61v2.7h-4.78c.68.63,1.23,1.13,1.76,1.61-.72.72-1.34,1.34-1.97,1.96-1.32-1.31-2.68-2.63-4-3.98-.53-.54-.55-1.29-.03-1.82,1.33-1.37,2.71-2.7,4.07-4.05Z"/>
  <path class="cls-1" d="M32.31,13.67c.19.3.36.56.56.88.21-.31.39-.57.59-.88.74.48,1.45.95,2.18,1.43-.31.69-.6,1.36-.94,2.12-1.18-.55-2.42-.6-3.64.02-.33-.74-.63-1.41-.95-2.14.7-.46,1.43-.94,2.19-1.44Z"/>
  <path class="cls-1" d="M34.28,22.19h-2.8c0-.81-.02-1.58,0-2.35,0-.3.17-.48.53-.45.56.03,1.13.04,1.7,0,.4-.03.55.16.56.49.02.75,0,1.5,0,2.31Z"/>
  <path class="cls-1" d="M31.58,24.93h2.62v2.62h-2.62v-2.62Z"/>
  <path class="cls-1" d="M31.58,41.08h2.61v2.61h-2.61v-2.61Z"/>
  <path class="cls-1" d="M31.56,35.71h2.64v2.59h-2.64v-2.59Z"/>
  <path class="cls-1" d="M34.21,30.32v2.64c-.82,0-1.61.01-2.4-.02-.1,0-.27-.24-.27-.37-.03-.73-.01-1.46-.01-2.24h2.69Z"/>
  <path class="cls-1" d="M14.28,38.79c-.4.85-.77,1.62-1.16,2.44-.82-.39-1.6-.77-2.42-1.16.39-.83.76-1.6,1.15-2.42.82.38,1.59.74,2.44,1.13Z"/>
  <path class="cls-1" d="M16.18,27.84c.85.36,1.64.69,2.48,1.04-.35.83-.68,1.62-1.05,2.49-.83-.35-1.62-.7-2.47-1.06.35-.82.68-1.61,1.04-2.47Z"/>
  <path class="cls-1" d="M50.63,30.31c-.85.37-1.62.7-2.47,1.06-.35-.83-.69-1.62-1.06-2.48.83-.35,1.61-.68,2.48-1.05.35.81.69,1.61,1.06,2.46Z"/>
  <path class="cls-1" d="M53.93,37.65c.39.83.75,1.58,1.15,2.42-.81.39-1.59.77-2.43,1.17-.39-.82-.76-1.61-1.16-2.45.82-.38,1.59-.75,2.44-1.14Z"/>
  <path class="cls-1" d="M55.25,46.13c-.49-.85-.93-1.61-1.39-2.42.8-.42,1.55-.82,2.37-1.25.43.75.86,1.48,1.3,2.24-.76.48-1.49.93-2.29,1.43Z"/>
  <path class="cls-1" d="M42.15,16.7c-.56-.65-1.07-1.23-1.6-1.85.59-.64,1.18-1.26,1.83-1.96.65.74,1.27,1.44,1.96,2.21-.75.55-1.45,1.06-2.19,1.6Z"/>
  <path class="cls-1" d="M11.91,43.7c-.48.83-.92,1.59-1.39,2.42-.79-.49-1.53-.95-2.29-1.43.44-.76.86-1.49,1.3-2.24.8.42,1.56.82,2.39,1.25Z"/>
  <path class="cls-1" d="M26.18,11.18c1.23-.39,2.37-.29,3.56.22-.35.81-.7,1.61-1.02,2.36-.59-.06-1.12-.11-1.75-.17-.23-.71-.5-1.52-.79-2.41Z"/>
  <path class="cls-1" d="M21.44,15.11c.66-.76,1.27-1.46,1.94-2.23.64.68,1.22,1.3,1.84,1.96-.52.61-1.04,1.2-1.59,1.85-.7-.51-1.39-1.01-2.18-1.58Z"/>
  <path class="cls-1" d="M20.7,23.83c-.35.89-.66,1.68-.99,2.53-.83-.33-1.62-.64-2.5-.99.32-.83.63-1.63.96-2.48.85.32,1.65.62,2.52.94Z"/>
  <path class="cls-1" d="M46.06,26.37c-.33-.85-.64-1.65-.99-2.54.84-.32,1.65-.62,2.52-.95.33.84.63,1.63.97,2.48-.83.34-1.62.65-2.49,1.01Z"/>
  <path class="cls-1" d="M12.96,35.21c.38-.85.73-1.62,1.1-2.44.82.36,1.6.71,2.46,1.09-.37.83-.73,1.62-1.11,2.47-.82-.37-1.59-.72-2.46-1.11Z"/>
  <path class="cls-1" d="M52.81,35.21c-.84.38-1.62.74-2.45,1.12-.37-.82-.73-1.62-1.11-2.46.83-.37,1.61-.72,2.45-1.1.36.79.71,1.57,1.11,2.44Z"/>
  <path class="cls-1" d="M39.59,11.17c-.28.87-.55,1.68-.79,2.42-.6.05-1.13.1-1.75.16-.31-.71-.66-1.51-1.02-2.34,1.16-.53,2.3-.61,3.57-.24Z"/>
  <path class="cls-1" d="M4.52,55.35c.06-.96.12-1.85.19-2.83.91.12,1.76.23,2.66.35-.05.84-.1,1.65-.15,2.48h-2.7Z"/>
  <path class="cls-1" d="M20.03,17.71c.88.41,1.65.77,2.44,1.14-.3.79-.59,1.55-.89,2.35-.82-.27-1.63-.53-2.56-.83.34-.9.67-1.76,1.02-2.67Z"/>
  <path class="cls-1" d="M44.2,21.21c-.3-.79-.58-1.53-.9-2.35.75-.36,1.54-.73,2.43-1.15.35.89.68,1.73,1.04,2.65-.9.3-1.73.57-2.57.85Z"/>
  <path class="cls-1" d="M60.35,49.6c-.91.34-1.71.64-2.53.94-.37-.75-.72-1.45-1.09-2.19.75-.45,1.49-.89,2.31-1.38.43.87.85,1.7,1.31,2.63Z"/>
  <path class="cls-1" d="M58.54,55.34c-.05-.84-.1-1.63-.15-2.46.89-.12,1.73-.24,2.66-.37.06.97.12,1.88.18,2.83h-2.7Z"/>
  <path class="cls-1" d="M6.72,46.97c.84.51,1.57.95,2.31,1.39-.37.74-.71,1.42-1.08,2.18-.81-.3-1.62-.6-2.52-.94.44-.89.85-1.73,1.29-2.64Z"/>
  <path class="cls-1" d="M31.56,48.15v-1.67h2.65v1.67h-2.65Z"/>
</svg>