<svg xmlns="http://www.w3.org/2000/svg" viewBox="0 0 120 120" fill="none">
  <!-- Mini Gastric Bypass - omega loop -->
  <g stroke="#d4d4d4" stroke-width="1.8" stroke-linecap="round" stroke-linejoin="round">
    <!-- Esophagus -->
    <path d="M48 18 C48 18, 44 26, 42 32" />
    <path d="M54 18 C54 18, 50 26, 48 32" />
    <!-- Long gastric sleeve/pouch -->
    <path d="M42 32 C38 40, 36 52, 38 64" />
    <path d="M48 32 C46 40, 44 52, 44 64" />
    <!-- Pouch bottom -->
    <path d="M38 64 C40 68, 42 68, 44 64" />
    <!-- Bypassed stomach (dashed) -->
    <path d="M48 32 C54 38, 64 46, 68 56 C72 66, 70 76, 64 84" stroke-dasharray="4 3" opacity="0.4" />
    <!-- Single loop anastomosis -->
    <path d="M38 64 C36 70, 40 76, 46 78" />
    <path d="M44 64 C42 70, 46 76, 52 78" />
    <!-- Intestinal loop (omega) -->
    <path d="M46 78 C52 80, 58 78, 62 74 C66 70, 68 66, 64 62" />
    <path d="M64 62 C60 58, 54 60, 50 64 C46 68, 46 74, 50 80" />
    <!-- Continuing intestine -->
    <path d="M50 80 C54 86, 58 92, 60 98" />
    <path d="M56 80 C60 86, 64 92, 66 98" />
  </g>
</svg>