<?xml version="1.0" encoding="UTF-8"?>
<svg id="katman_1" xmlns="http://www.w3.org/2000/svg" viewBox="0 0 65.76 70.38">
  <defs>
    <style>
      .cls-1 {
        fill: #ACA09B;
      }
    </style>
  </defs>
  <path class="cls-1" d="M43.91,10.98c-.03,3.84-1.1,7.1-2.5,10.27-2.69,6.09-6.17,11.72-10.05,17.12-1.2,1.67-2.31,3.45-3.16,5.32-1.23,2.69-.66,4.99,1.63,6.88,1.39,1.15,2.95,2.1,4.48,3.07,1.57.99,3.09,2.01,3.94,3.74,1.1,2.25,1.14,4.52.07,6.79-.44.92-.94,1.82-1.28,2.78-.26.73-.35,1.53-.41,2.31-.04.58-.17,1.02-.81,1.1-.52.06-.86-.37-.89-1.09-.09-1.74.6-3.26,1.31-4.79.42-.9.9-1.82,1.06-2.77.4-2.4-.51-4.35-2.5-5.73-1.61-1.11-3.31-2.08-4.92-3.19-1.74-1.2-3.15-2.7-3.74-4.8-.48-1.74-.29-3.47.5-5.03.95-1.86,1.99-3.69,3.2-5.38,3.87-5.38,7.36-10.97,10.02-17.05,1.05-2.39,1.92-4.84,2.22-7.46.48-4.23-.65-7.96-3.4-11.21-.08-.09-.15-.18-.23-.26-.4-.42-.56-.87-.11-1.35.37-.39.85-.32,1.32.19,2.25,2.43,3.59,5.29,4.06,8.56.11.76.13,1.53.17,1.97Z"/>
  <path class="cls-1" d="M46.12,58.01c-.3-.21-.55-.33-.73-.53-1.35-1.45-3-2.13-4.98-2.02-.67.04-1.07-.28-1.08-.8-.01-.51.38-.84,1.04-.87,2.5-.12,4.6.74,6.25,2.61.2.23.28.69.21.99-.05.23-.43.39-.71.62Z"/>
  <path class="cls-1" d="M32.38,60.85c-.16.18-.34.52-.53.53-.21.01-.51-.24-.64-.46-.16-.26-.26-.61-.26-.92,0-.25.21-.49.33-.73.23.11.55.17.66.35.2.33.26.73.42,1.23Z"/>
  <path class="cls-1" d="M29.52,26.46c-.12-.25-.4-.56-.33-.74.15-.45.42-.88.75-1.22.11-.12.53.06.81.11-.05.28-.04.59-.17.83-.21.38-.51.71-.77,1.06-.09-.01-.19-.02-.28-.03Z"/>
  <path class="cls-1" d="M21.3,37.35c.59-.03.9.36.75.74-.15.38-.34.76-.58,1.09-.25.34-.64.36-.86,0-.11-.18-.05-.54.05-.76.19-.42.47-.79.64-1.08Z"/>
  <path class="cls-1" d="M20.16,46.47c-.11.11-.3.44-.49.44-.21,0-.52-.25-.61-.47-.13-.33-.18-.74-.12-1.08.04-.22.31-.49.53-.56.12-.04.44.26.52.47.12.31.11.68.17,1.2Z"/>
  <path class="cls-1" d="M20.3,48.39c.29.2.48.27.56.41.21.35.42.73.52,1.12.05.18-.08.54-.24.62-.16.09-.55.02-.65-.12-.26-.37-.5-.79-.6-1.23-.05-.2.23-.49.4-.8Z"/>
  <path class="cls-1" d="M28.88,56.35c.44.41.94.78,1.29,1.26.22.3-.28.79-.63.61-.46-.25-.89-.58-1.24-.97-.25-.27.1-.78.59-.9Z"/>
  <path class="cls-1" d="M35.54,10.79c0,.19.06.4-.02.55-.1.2-.33.5-.47.48-.21-.03-.5-.26-.57-.46-.1-.32-.12-.71-.04-1.03.07-.26.34-.46.53-.68.19.22.4.42.55.67.07.12.01.32.01.48Z"/>
  <path class="cls-1" d="M35.3,14.02c-.11.52-.12.91-.28,1.23-.11.21-.42.4-.66.41-.12,0-.37-.37-.38-.59-.02-.36.05-.75.21-1.07.1-.21.42-.41.65-.41.17,0,.34.31.45.43Z"/>
  <path class="cls-1" d="M26.61,31.43c-.4.49-.75.95-1.16,1.37-.07.07-.42-.01-.54-.13-.12-.12-.2-.42-.13-.55.22-.4.49-.78.79-1.12.1-.11.4-.14.56-.08.16.06.26.27.47.52Z"/>
  <path class="cls-1" d="M25.58,54.16c.48.36.94.68,1.36,1.06.08.08.03.44-.08.55-.13.13-.44.22-.59.15-.39-.18-.77-.43-1.09-.72-.13-.12-.17-.43-.12-.61.04-.15.28-.25.52-.44Z"/>
  <path class="cls-1" d="M34.31,17.82c-.21.51-.36.98-.61,1.38-.09.14-.46.21-.65.15-.15-.05-.33-.38-.29-.54.11-.44.28-.88.51-1.27.08-.14.41-.22.59-.17.17.05.3.29.45.45Z"/>
  <path class="cls-1" d="M27.56,29.63c-.41.02-.71-.37-.52-.75.19-.39.45-.76.73-1.08.28-.32.76-.2.89.18.15.42-.67,1.63-1.11,1.65Z"/>
  <path class="cls-1" d="M24.35,34.62c-.41.5-.76.97-1.17,1.39-.07.07-.45-.03-.53-.15-.11-.16-.15-.46-.07-.63.17-.35.4-.69.67-.97.13-.13.42-.19.61-.15.16.03.27.26.49.5Z"/>
  <path class="cls-1" d="M31.51,23.05c-.13-.22-.42-.5-.37-.7.11-.44.35-.86.61-1.23.09-.13.43-.18.61-.13.15.04.37.35.33.45-.21.5-.49.98-.76,1.46-.03.06-.17.07-.42.15Z"/>
  <path class="cls-1" d="M19.1,42.57c.14-.51.2-.94.39-1.29.1-.18.47-.36.65-.3.18.05.37.4.36.62-.02.38-.13.79-.31,1.12-.1.18-.44.33-.65.31-.17-.01-.31-.31-.44-.45Z"/>
  <path class="cls-1" d="M22.63,51.72c.4.45.88.85,1.19,1.35.19.31-.34.77-.68.55-.44-.27-.84-.65-1.15-1.07-.24-.32.11-.76.63-.84Z"/>
</svg>