<?xml version="1.0" encoding="UTF-8"?>
<svg id="katman_1" xmlns="http://www.w3.org/2000/svg" xmlns:xlink="http://www.w3.org/1999/xlink" viewBox="0 0 46.71 46.79">
  <defs>
    <style>
      .cls-1 {
        fill: url(#Adsız_degrade-3);
      }

      .cls-2 {
        fill: url(#Adsız_degrade-2);
      }

      .cls-3 {
        fill: url(#Adsız_degrade);
      }
    </style>
    <linearGradient id="Adsız_degrade" data-name="Adsız degrade" x1="23.35" y1="34.39" x2="45.34" y2="34.39" gradientUnits="userSpaceOnUse">
      <stop offset="0" stop-color="#bda698"/>
      <stop offset="1" stop-color="#ecd8d2"/>
    </linearGradient>
    <linearGradient id="Adsız_degrade-2" data-name="Adsız degrade" x1="1.37" y1="31.64" x2="27.01" y2="31.64" xlink:href="#Adsız_degrade"/>
    <linearGradient id="Adsız_degrade-3" data-name="Adsız degrade" x1="8.69" y1="10.57" x2="27.02" y2="10.57" xlink:href="#Adsız_degrade"/>
  </defs>
  <path class="cls-3" d="M32.97,45.38c-.37-.17-.78-.29-1.12-.52-.82-.56-1.18-1.37-1.18-2.35,0-1.46,0-2.92,0-4.43-.17,0-.32-.02-.47-.02-1.29,0-2.58,0-3.86,0-1.85,0-2.99-1.15-2.99-3.01,0-.49,0-.97,0-1.46,0-1.69,1.17-2.86,2.86-2.87,1.32-.01,2.63,0,3.95,0,.15,0,.31,0,.51,0,0-.2,0-.35,0-.51,0-1.3,0-2.6,0-3.91.01-1.75,1.17-2.9,2.92-2.91.52,0,1.03,0,1.55,0,1.69,0,2.86,1.16,2.88,2.86.01,1.32,0,2.63,0,3.95,0,.15,0,.31,0,.51.45,0,.86,0,1.28,0,1.03,0,2.06,0,3.09,0,1.51,0,2.47.74,2.89,2.19.01.04.04.07.06.11v2.75s-.05.07-.06.11c-.41,1.45-1.38,2.18-2.89,2.19-.96,0-1.92,0-2.87,0-.48,0-.96,0-1.49,0,0,.2,0,.35,0,.51,0,1.32,0,2.63,0,3.95,0,1.26-.68,2.27-1.78,2.68-.17.07-.35.12-.52.18h-2.75ZM36.17,28.87c0-.86,0-1.72,0-2.58,0-.74-.34-1.06-1.09-1.07-.47,0-.94,0-1.42,0-.83,0-1.14.32-1.15,1.14,0,1.66,0,3.32,0,4.98,0,.9-.32,1.22-1.21,1.22-1.69,0-3.38,0-5.07,0-.72,0-1.05.34-1.06,1.05,0,.49,0,.97,0,1.46,0,.82.32,1.13,1.15,1.14,1.66,0,3.32,0,4.98,0,.89,0,1.21.32,1.21,1.22,0,1.66,0,3.32,0,4.98,0,.82.32,1.13,1.15,1.14.44,0,.89,0,1.33,0,.85,0,1.17-.31,1.17-1.17,0-1.65,0-3.29,0-4.94,0-.93.31-1.24,1.23-1.24,1.69,0,3.38,0,5.07,0,.68,0,1.02-.35,1.04-1.03.01-.47,0-.94,0-1.42,0-.91-.3-1.2-1.22-1.2-1.65,0-3.29,0-4.94,0-.86,0-1.18-.33-1.19-1.2,0-.83,0-1.66,0-2.49Z"/>
  <path class="cls-2" d="M3.23,38.06c.21,0,.38,0,.55,0,4.86,0,9.73,0,14.59,0,.16,0,.32,0,.47,0,.49.04.82.4.83.87.01.47-.31.86-.78.93-.14.02-.29.01-.43.01-5.29,0-10.59,0-15.88,0-.92,0-1.22-.3-1.22-1.2,0-2.3,0-4.61,0-6.91,0-4.15,2.76-7.48,6.83-8.25.47-.09.97-.12,1.45-.12,5.41,0,10.82,0,16.23,0,.65,0,.99.23,1.11.73.11.5-.22,1-.72,1.08-.18.03-.37.02-.56.02-5.31,0-10.62-.01-15.93,0-2.63,0-4.6,1.18-5.87,3.5-.47.86-.7,1.79-.71,2.76-.02,2.1,0,4.21,0,6.31,0,.07.02.14.03.27Z"/>
  <path class="cls-1" d="M17.87,19.72c-5.04,0-9.15-4.07-9.18-9.12-.03-5.04,4.1-9.19,9.15-9.19,5.05,0,9.18,4.12,9.18,9.17,0,5.04-4.1,9.14-9.15,9.15ZM25.18,10.59c0-4.06-3.28-7.36-7.32-7.35-4.03,0-7.3,3.28-7.31,7.32-.01,4.04,3.25,7.33,7.28,7.35,4.06.01,7.35-3.26,7.36-7.31Z"/>
</svg>