<?xml version="1.0" encoding="UTF-8"?>
<svg id="katman_1" xmlns="http://www.w3.org/2000/svg" xmlns:xlink="http://www.w3.org/1999/xlink" viewBox="0 0 46.71 46.79">
  <defs>
    <style>
      .cls-1 {
        fill: url(#Adsız_degrade_2-2);
      }

      .cls-2 {
        fill: url(#Adsız_degrade_2);
      }
    </style>
    <linearGradient id="Adsız_degrade_2" data-name="Adsız degrade 2" x1="2.64" y1="23.29" x2="44.07" y2="23.29" gradientUnits="userSpaceOnUse">
      <stop offset="0" stop-color="#bda698"/>
      <stop offset="1" stop-color="#ecd8d2"/>
    </linearGradient>
    <linearGradient id="Adsız_degrade_2-2" data-name="Adsız degrade 2" x1="34.13" y1="22.55" x2="39.44" y2="22.55" xlink:href="#Adsız_degrade_2"/>
  </defs>
  <path class="cls-2" d="M14.79,41.08c.26.41.5.76.71,1.12.25.42.19.75-.22,1.02-1.67,1.08-3.35,2.14-5.03,3.2-.43.27-.75.16-1.06-.33-1.6-2.51-3.2-5.01-4.8-7.52-.5-.78-1-1.56-1.49-2.34-.42-.66-.36-.9.31-1.33,1.52-.97,3.04-1.94,4.56-2.91.73-.47.92-.43,1.39.29.05.08.1.15.19.27.57-.35,1.13-.69,1.7-1.03.69-.42,1.37-.85,2.06-1.24.26-.15.35-.32.35-.62,0-1.76-.05-3.52.04-5.28.21-3.89,3.11-7.26,6.91-8.11.17-.04.35-.08.59-.14-2.86-1.92-4.35-4.54-4.2-7.97.11-2.4,1.14-4.41,2.93-6.01,3.6-3.2,9.15-2.78,12.3.91,3.31,3.88,2.62,10.07-2.08,13.02.76.27,1.54.54,2.31.81.06.02.15,0,.22-.02,1.91-.45,2.55-.36,4.3.63,1.2-.85,2.53-1.12,3.97-.72,3.27.92,4.4,4.97,2.06,7.45-1.64,1.73-3.35,3.39-5.05,5.06-.31.3-.42.61-.3,1.04.09,0,.19.02.29.02,1.39.02,2.5.84,2.86,2.11.36,1.27-.13,2.55-1.29,3.32-1.15.76-2.32,1.5-3.48,2.24-2,1.29-4.03,2.55-6.01,3.86-1.61,1.07-3.28,1.29-5.11.65-2.53-.88-5.09-1.69-7.63-2.54-.27-.09-.48-.06-.71.09-.52.34-1.06.65-1.62.99ZM14.74,29.37c1.13-.36,2.16-.37,3.18-.04,3.47,1.14,6.93,2.29,10.4,3.44.83.28,1.45.81,1.82,1.61.04.08.08.15.13.24.16-.09.29-.17.42-.25,1.66-1.06,3.32-2.13,4.98-3.19.6-.38.69-1.32.17-1.84-1.63-1.63-3.27-3.26-4.89-4.9-1.86-1.88-1.92-4.5-.16-6.46.06-.06.1-.14.23-.32-.84-.12-1.6-.3-2.37-.31-2.14-.04-4.28-.05-6.42,0-3.36.07-6.27,2.35-7.16,5.59-.58,2.09-.16,4.22-.32,6.42ZM25.46,16.03c4.06,0,7.36-3.31,7.36-7.36,0-4.07-3.31-7.37-7.4-7.36-4.06.01-7.35,3.32-7.34,7.37,0,4.05,3.32,7.35,7.38,7.34ZM14.09,39.99c.69-.42,1.36-.8,2.01-1.22.34-.22.64-.25,1.03-.13,2.69.9,5.38,1.77,8.07,2.68,1.39.48,2.66.34,3.9-.48,1.77-1.17,3.57-2.3,5.36-3.44,1.39-.89,2.78-1.79,4.17-2.68.62-.4.94-.96.82-1.69-.2-1.21-1.49-1.76-2.56-1.08-2.06,1.31-4.12,2.63-6.16,3.96-.22.14-.41.4-.5.64-.57,1.53-2.01,2.29-3.58,1.83-.44-.13-.86-.28-1.3-.43-1.11-.37-2.22-.73-3.32-1.1-.57-.19-.79-.5-.65-.91.13-.39.5-.5,1.03-.33.03,0,.06.02.08.03,1.47.49,2.93.98,4.4,1.45,1.05.34,1.88-.13,2.15-1.19.21-.84-.27-1.64-1.22-1.95-3.41-1.13-6.82-2.25-10.23-3.38-1.09-.36-2.11-.25-3.1.36-1.38.85-2.77,1.69-4.16,2.54-.1.06-.18.14-.28.21,1.35,2.11,2.68,4.2,4.02,6.3ZM36.74,28.44c1.77-1.75,3.53-3.42,5.21-5.17,1.19-1.24,1.08-3.2-.11-4.41-1.2-1.21-3.1-1.28-4.42-.18-.55.46-.72.47-1.25.02-1.36-1.14-3.27-1.06-4.48.2-1.19,1.24-1.19,3.19.02,4.48.41.44.85.86,1.28,1.29,1.25,1.26,2.5,2.51,3.74,3.76ZM14.11,42.43c-1.97-3.08-3.91-6.13-5.87-9.2-1.38.88-2.71,1.73-4.06,2.59,1.97,3.08,3.91,6.13,5.87,9.2,1.38-.88,2.7-1.73,4.06-2.59Z"/>
  <path class="cls-1" d="M36.07,23.2c-.41,0-.8,0-1.2,0-.45,0-.73-.26-.75-.63-.01-.39.28-.64.76-.65.38,0,.76,0,1.14-.02.01,0,.02-.02.11-.07,0-.34,0-.73,0-1.11,0-.53.24-.81.66-.81.41,0,.63.28.64.82,0,.38,0,.75,0,1.19.45,0,.85,0,1.26,0,.45,0,.74.25.75.62.01.39-.28.65-.76.66-.39,0-.78,0-1.25,0,0,.42,0,.8,0,1.19-.01.52-.25.82-.65.81-.4,0-.64-.3-.65-.82,0-.35,0-.7-.01-1.05,0-.03-.02-.05-.05-.13Z"/>
</svg>