<?xml version="1.0" encoding="UTF-8"?>
<svg id="katman_1" xmlns="http://www.w3.org/2000/svg" xmlns:xlink="http://www.w3.org/1999/xlink" viewBox="0 0 46.71 46.79">
  <defs>
    <style>
      .cls-1 {
        fill: url(#Adsız_degrade-3);
      }

      .cls-2 {
        fill: url(#Adsız_degrade-2);
      }

      .cls-3 {
        fill: url(#Adsız_degrade-5);
      }

      .cls-4 {
        fill: url(#Adsız_degrade);
      }

      .cls-5 {
        fill: url(#Adsız_degrade-4);
      }
    </style>
    <linearGradient id="Adsız_degrade" data-name="Adsız degrade" x1="3.15" y1="32.93" x2="43.53" y2="32.93" gradientUnits="userSpaceOnUse">
      <stop offset="0" stop-color="#bda698"/>
      <stop offset="1" stop-color="#ecd8d2"/>
    </linearGradient>
    <linearGradient id="Adsız_degrade-2" data-name="Adsız degrade" x1="14.47" y1="8.46" x2="32.24" y2="8.46" xlink:href="#Adsız_degrade"/>
    <linearGradient id="Adsız_degrade-3" data-name="Adsız degrade" x1="1.55" y1="13.39" x2="16.09" y2="13.39" xlink:href="#Adsız_degrade"/>
    <linearGradient id="Adsız_degrade-4" data-name="Adsız degrade" x1="30.62" y1="13.39" x2="45.16" y2="13.39" xlink:href="#Adsız_degrade"/>
    <linearGradient id="Adsız_degrade-5" data-name="Adsız degrade" x1="22.55" y1="45.99" x2="24.16" y2="45.99" xlink:href="#Adsız_degrade"/>
  </defs>
  <path class="cls-4" d="M11.38,40.8c.97-4.78,3.73-7.97,8.34-9.64-1.95-1.48-2.96-3.4-2.8-5.84.11-1.72.85-3.17,2.13-4.33,2.59-2.34,6.56-2.16,8.98.33,2.32,2.39,2.75,7.02-1.01,9.86,2.18.72,4.02,1.9,5.5,3.61,1.49,1.72,2.4,3.71,2.81,6.05.33-.29.62-.53.88-.8,4.56-4.54,6.37-10,5.51-16.36-.08-.63.15-1.04.64-1.12.49-.08.85.23.94.87.85,5.82-.48,11.1-4.12,15.73-3.13,3.98-7.27,6.36-12.24,7.29-.72.13-1.23-.25-1.14-.86.07-.48.41-.66.84-.73,2.16-.38,4.19-1.09,6.07-2.22,1.34-.81,1.24-.38.92-2.02-.99-5.07-5.46-8.53-10.72-8.37-4.98.15-9.2,3.98-9.92,8.98-.07.5.01.81.49,1.1,2.05,1.24,4.24,2.09,6.6,2.53.24.04.55.14.65.31.14.24.2.61.12.87-.13.43-.56.52-.96.42-1.19-.3-2.41-.52-3.54-.96-7.01-2.74-11.28-7.85-12.82-15.21-.46-2.22-.45-4.48-.11-6.73.02-.1.04-.2.06-.3.11-.5.49-.79.93-.7.45.08.69.48.65.99-.09,1.26-.28,2.52-.23,3.77.23,5.22,2.29,9.61,6.17,13.14.12.11.25.2.4.32ZM28.2,25.8c0-2.66-2.18-4.84-4.85-4.84-2.66,0-4.84,2.18-4.84,4.85,0,2.66,2.18,4.84,4.85,4.84,2.66,0,4.84-2.18,4.84-4.85Z"/>
  <path class="cls-2" d="M17.58,15.94c.25-1.45.49-3,.79-4.53.08-.42-.01-.68-.32-.97-1.07-1-2.1-2.04-3.15-3.05-.29-.28-.53-.58-.37-1.02.15-.43.51-.52.92-.58,1.5-.2,2.99-.45,4.49-.65.31-.04.46-.18.59-.45.63-1.3,1.28-2.59,1.91-3.89C22.62.41,22.8,0,23.34,0c.54,0,.73.38.93.79.64,1.32,1.29,2.62,1.93,3.94.12.25.26.37.56.41,1.53.2,3.06.45,4.59.66.4.06.72.19.85.6.13.39-.06.68-.33.94-1.1,1.07-2.19,2.14-3.3,3.2-.24.23-.3.44-.25.75.26,1.45.52,2.91.77,4.37.07.4.13.81-.26,1.11-.41.31-.79.12-1.17-.09-1.23-.65-2.48-1.28-3.69-1.96-.43-.24-.76-.25-1.19,0-1.29.72-2.61,1.4-3.92,2.07-.69.36-1.31-.01-1.27-.84ZM19.44,14.65c1.17-.61,2.24-1.16,3.3-1.74.43-.24.81-.24,1.23,0,.87.48,1.75.93,2.63,1.39.19.1.39.2.67.34-.22-1.31-.41-2.5-.64-3.69-.09-.47.03-.81.37-1.13.67-.63,1.33-1.29,1.99-1.93.21-.2.44-.39.66-.58-1.15-.29-2.2-.48-3.27-.58-.74-.07-1.23-.34-1.53-1.07-.42-1.01-.96-1.98-1.49-3.04-.13.24-.22.39-.3.55-.47.95-.94,1.89-1.4,2.85-.18.36-.43.58-.84.62-.65.08-1.3.19-1.95.28-.58.09-1.17.18-1.65.25.83.88,1.64,1.77,2.49,2.64.32.33.45.66.36,1.13-.23,1.19-.41,2.38-.64,3.7Z"/>
  <path class="cls-1" d="M4.03,19.35c.19-1.12.38-2.31.61-3.5.07-.35,0-.59-.26-.84-.82-.77-1.61-1.57-2.42-2.35-.28-.27-.5-.56-.37-.97.14-.43.5-.55.9-.61,1.15-.16,2.3-.32,3.44-.51.19-.03.42-.2.51-.37.54-1.03,1.05-2.07,1.55-3.11.18-.37.41-.62.83-.62.42,0,.66.25.84.61.5,1.05,1.01,2.09,1.54,3.11.09.17.32.34.51.37,1.13.19,2.26.35,3.39.51.42.06.81.15.96.61.15.44-.11.73-.39,1.01-.8.77-1.58,1.56-2.39,2.32-.26.25-.34.48-.27.84.22,1.12.39,2.25.59,3.37.07.37.03.71-.3.95-.33.24-.66.16-.99-.02-1.04-.55-2.08-1.09-3.12-1.65-.25-.14-.44-.13-.69,0-1.06.58-2.13,1.14-3.21,1.68-.65.33-1.27-.07-1.23-.84ZM5.9,18.03c.78-.41,1.48-.74,2.14-1.13.54-.32,1-.33,1.55,0,.67.4,1.38.73,2.14,1.13-.15-.89-.25-1.69-.42-2.47-.12-.54.02-.92.41-1.3.59-.56,1.13-1.17,1.7-1.78-.64-.1-1.28-.25-1.93-.28-.88-.04-1.43-.39-1.74-1.23-.23-.63-.58-1.22-.92-1.91-.36.73-.72,1.32-.96,1.96-.3.81-.84,1.13-1.67,1.17-.67.04-1.33.19-1.97.29.62.65,1.2,1.28,1.81,1.89.3.3.41.63.32,1.05-.16.84-.29,1.68-.45,2.62Z"/>
  <path class="cls-5" d="M33.11,19.34c.19-1.12.38-2.31.61-3.5.07-.36,0-.59-.27-.84-.81-.76-1.59-1.55-2.39-2.32-.29-.28-.54-.57-.39-1.01.15-.46.54-.55.96-.61,1.13-.16,2.26-.31,3.39-.5.19-.03.42-.2.5-.37.54-1.03,1.05-2.07,1.54-3.11.18-.37.41-.61.84-.61.42,0,.66.25.83.62.5,1.05,1.01,2.09,1.55,3.11.09.17.32.33.51.36,1.13.19,2.26.35,3.39.51.42.06.8.16.95.62.14.44-.11.73-.4,1.01-.81.78-1.6,1.58-2.43,2.35-.24.23-.29.45-.24.76.21,1.14.39,2.28.59,3.42.07.38.03.71-.31.94-.33.24-.66.15-.99-.02-1.01-.54-2.03-1.05-3.02-1.61-.32-.18-.56-.16-.87.01-1.03.57-2.07,1.11-3.12,1.64-.65.33-1.27-.07-1.22-.85ZM37.89,9.06c-.43.86-.82,1.62-1.18,2.39-.18.38-.45.59-.88.65-.86.11-1.71.25-2.53.38.61.64,1.18,1.27,1.79,1.88.32.32.42.65.33,1.09-.16.83-.29,1.67-.45,2.59.81-.42,1.54-.79,2.26-1.19.46-.26.86-.26,1.32,0,.71.4,1.45.77,2.25,1.19-.15-.91-.27-1.74-.44-2.56-.1-.49.03-.83.38-1.17.6-.58,1.16-1.2,1.75-1.83-.82-.12-1.66-.27-2.51-.37-.45-.05-.73-.27-.92-.67-.36-.76-.74-1.5-1.17-2.37Z"/>
  <path class="cls-3" d="M24.16,45.97c0,.44-.35.81-.79.82-.44,0-.81-.35-.82-.79,0-.44.35-.81.79-.82.44,0,.81.35.82.79Z"/>
</svg>