<?xml version="1.0" encoding="UTF-8"?>
<svg id="katman_1" xmlns="http://www.w3.org/2000/svg" xmlns:xlink="http://www.w3.org/1999/xlink" viewBox="0 0 46.71 46.79">
  <defs>
    <style>
      .cls-1 {
        fill: url(#Adsız_degrade_2-3);
      }

      .cls-2 {
        fill: url(#Adsız_degrade_2-6);
      }

      .cls-3 {
        fill: url(#Adsız_degrade_2-4);
      }

      .cls-4 {
        fill: url(#Adsız_degrade_2-2);
      }

      .cls-5 {
        fill: url(#Adsız_degrade_2-5);
      }

      .cls-6 {
        fill: url(#Adsız_degrade_2);
      }
    </style>
    <linearGradient id="Adsız_degrade_2" data-name="Adsız degrade 2" x1="8.79" y1="30.77" x2="37.98" y2="30.77" gradientUnits="userSpaceOnUse">
      <stop offset="0" stop-color="#bda698"/>
      <stop offset="1" stop-color="#ecd8d2"/>
    </linearGradient>
    <linearGradient id="Adsız_degrade_2-2" data-name="Adsız degrade 2" x1="17.07" y1="6.88" x2="29.69" y2="6.88" xlink:href="#Adsız_degrade_2"/>
    <linearGradient id="Adsız_degrade_2-3" data-name="Adsız degrade 2" x1="34.17" y1="14.05" x2="46.71" y2="14.05" xlink:href="#Adsız_degrade_2"/>
    <linearGradient id="Adsız_degrade_2-4" data-name="Adsız degrade 2" x1="0" y1="14.16" x2="12.58" y2="14.16" xlink:href="#Adsız_degrade_2"/>
    <linearGradient id="Adsız_degrade_2-5" data-name="Adsız degrade 2" x1="15.46" y1="28.51" x2="31.3" y2="28.51" xlink:href="#Adsız_degrade_2"/>
    <linearGradient id="Adsız_degrade_2-6" data-name="Adsız degrade 2" x1="19.56" y1="29.17" x2="27.2" y2="29.17" xlink:href="#Adsız_degrade_2"/>
  </defs>
  <path class="cls-6" d="M26.97,40.88c-2.39.66-4.77.67-7.18,0-.09.14-.18.27-.26.42-.78,1.35-1.55,2.69-2.34,4.04-.45.77-1.02.8-1.58.11-.56-.69-1.14-1.36-1.67-2.07-.22-.28-.44-.35-.77-.29-1.1.19-2.21.35-3.32.54-.38.07-.7,0-.93-.32-.22-.33-.17-.66.03-.99,1.19-2.05,2.37-4.11,3.57-6.16.17-.28.17-.47-.01-.76-4.95-7.83-.31-18.12,8.85-19.61,7.14-1.17,13.95,3.97,14.78,11.15.36,3.05-.27,5.89-1.92,8.48-.17.26-.17.44-.02.71,1.18,2.02,2.35,4.05,3.52,6.08.21.37.36.73.08,1.12-.26.37-.63.35-1.04.28-1.05-.19-2.11-.33-3.17-.51-.35-.06-.58.01-.81.31-.51.68-1.07,1.33-1.61,1.99-.63.77-1.17.74-1.67-.11-.76-1.32-1.52-2.64-2.28-3.95-.08-.14-.17-.28-.27-.44ZM23.41,17.24c-6.22-.01-11.25,4.99-11.28,11.19-.03,6.27,4.99,11.32,11.24,11.33,6.24,0,11.27-5,11.28-11.24.01-6.24-5-11.26-11.24-11.28ZM11.12,41.8c.85-.13,1.59-.2,2.3-.37.65-.16,1.08.04,1.46.56.42.59.91,1.13,1.4,1.72.68-1.17,1.31-2.27,1.96-3.4-1.72-.77-3.17-1.83-4.43-3.18-.9,1.55-1.76,3.05-2.69,4.67ZM28.55,40.38c.62,1.08,1.26,2.18,1.93,3.34.54-.66,1.05-1.26,1.53-1.88.31-.41.68-.53,1.18-.44.78.15,1.56.25,2.45.39-.92-1.61-1.79-3.12-2.65-4.61-.72.61-1.37,1.23-2.1,1.76-.73.52-1.52.95-2.34,1.44Z"/>
  <path class="cls-4" d="M20.07,12.92c-.59.01-.96-.45-.87-.99.17-.95.33-1.91.53-2.86.07-.33.02-.56-.24-.79-.68-.62-1.33-1.27-2-1.9-.28-.26-.51-.54-.37-.96.14-.43.47-.56.89-.61.95-.12,1.89-.24,2.83-.4.17-.03.39-.18.47-.34.45-.86.86-1.73,1.28-2.61.17-.36.4-.62.83-.61.41.01.62.27.78.61.42.87.83,1.75,1.28,2.61.08.15.29.31.47.34.94.16,1.88.28,2.83.4.41.05.75.16.89.6.13.42-.07.7-.35.97-.68.64-1.35,1.3-2.04,1.94-.23.21-.28.4-.21.7.19.93.35,1.87.52,2.81.07.38.02.7-.31.94-.31.22-.62.17-.94,0-.85-.46-1.72-.9-2.56-1.38-.26-.15-.47-.15-.73,0-.84.48-1.7.92-2.56,1.38-.15.08-.31.12-.39.16ZM27.13,6.22c-.72-.11-1.33-.23-1.94-.28-.5-.04-.78-.29-.98-.73-.25-.55-.52-1.09-.83-1.73-.3.62-.58,1.12-.78,1.64-.22.55-.58.81-1.17.86-.57.04-1.14.15-1.8.24.52.5.96.93,1.41,1.35.34.31.48.65.37,1.11-.14.61-.22,1.23-.35,1.93.63-.34,1.2-.62,1.75-.93.39-.22.75-.22,1.13,0,.55.31,1.11.6,1.74.94-.12-.71-.22-1.35-.35-1.98-.09-.43.02-.75.33-1.03.46-.43.92-.87,1.46-1.39Z"/>
  <path class="cls-1" d="M40.45,7.92c.33.31.62.48.76.74.45.84.85,1.7,1.25,2.57.15.33.34.47.71.51.93.1,1.85.25,2.78.37.39.05.73.21.75.6.02.29-.11.66-.31.87-.64.68-1.33,1.32-2.02,1.95-.24.23-.34.43-.26.78.2.93.39,1.87.5,2.81.03.28-.1.71-.3.86-.21.15-.65.15-.91.03-.88-.41-1.72-.89-2.56-1.37-.26-.15-.46-.16-.73,0-.83.47-1.68.9-2.51,1.36-.35.19-.69.26-1.03,0-.32-.25-.34-.58-.26-.95.17-.88.3-1.78.49-2.66.08-.39,0-.65-.3-.92-.67-.6-1.31-1.25-1.96-1.87-.27-.26-.45-.53-.33-.93.12-.39.41-.54.79-.59.89-.12,1.79-.26,2.68-.36.4-.04.66-.18.83-.58.36-.84.77-1.67,1.2-2.48.14-.26.43-.44.75-.76ZM44.1,13.48c-.59-.08-1.16-.18-1.74-.23-.53-.04-.86-.28-1.07-.77-.24-.55-.51-1.08-.82-1.71-.3.62-.59,1.17-.83,1.73-.21.49-.55.71-1.07.76-.58.05-1.16.15-1.71.23.46.49.88.97,1.33,1.42.3.3.41.62.32,1.04-.13.62-.23,1.24-.35,1.95.58-.31,1.11-.55,1.6-.85.5-.32.95-.3,1.44,0,.49.3,1.01.55,1.59.86-.13-.74-.22-1.38-.35-2.02-.09-.41.05-.71.33-.99.45-.45.87-.92,1.34-1.41Z"/>
  <path class="cls-3" d="M12.58,13.08c-.06.1-.16.33-.33.5-.66.66-1.33,1.32-2.03,1.94-.27.24-.35.48-.28.83.19.92.37,1.83.49,2.76.04.28-.09.66-.27.88-.25.3-.63.21-.97.03-.87-.47-1.73-.95-2.61-1.39-.16-.08-.42-.08-.58,0-.87.43-1.72.9-2.57,1.36-.35.19-.69.27-1.03.02-.34-.25-.35-.6-.27-.99.19-.93.36-1.87.5-2.81.03-.19-.07-.46-.2-.6-.67-.68-1.36-1.33-2.05-1.99-.26-.25-.48-.51-.37-.92.12-.44.46-.58.87-.63.91-.12,1.82-.25,2.73-.36.33-.04.53-.17.67-.49.37-.84.8-1.65,1.19-2.48.17-.36.38-.63.81-.63.43,0,.64.29.81.64.38.8.78,1.59,1.14,2.39.17.38.38.55.81.59.93.08,1.86.24,2.78.38.47.07.73.37.73.95ZM6.3,10.77c-.31.64-.58,1.16-.81,1.69-.22.5-.55.75-1.1.79-.57.04-1.14.15-1.64.22.43.48.84.97,1.29,1.44.28.29.4.59.31.99-.14.63-.23,1.28-.35,1.99.64-.34,1.21-.63,1.78-.95.35-.2.68-.21,1.04,0,.56.32,1.14.61,1.79.96-.11-.63-.16-1.2-.31-1.74-.17-.62.01-1.05.48-1.46.41-.37.76-.81,1.15-1.22-.56-.08-1.12-.19-1.68-.22-.57-.04-.92-.3-1.13-.82-.22-.53-.5-1.04-.8-1.66Z"/>
  <path class="cls-5" d="M23.4,20.59c4.35,0,7.91,3.59,7.9,7.94-.01,4.35-3.59,7.91-7.94,7.9-4.35-.01-7.91-3.58-7.9-7.94,0-4.35,3.58-7.91,7.94-7.9ZM29.69,28.52c.01-3.45-2.8-6.29-6.27-6.32-3.47-.03-6.33,2.81-6.34,6.3,0,3.46,2.8,6.29,6.27,6.32,3.47.03,6.33-2.81,6.34-6.3Z"/>
  <path class="cls-2" d="M22.1,30.1c1.17-1.17,2.31-2.31,3.44-3.44.6-.6,1.01-.69,1.41-.31.4.38.31.85-.29,1.45-1.34,1.34-2.67,2.67-4.01,4.01-.62.62-1.11.55-1.56-.21-.46-.79-.92-1.59-1.37-2.39-.29-.52-.2-.97.23-1.22.43-.24.85-.08,1.16.44.32.54.64,1.09.98,1.68Z"/>
</svg>