<svg xmlns="http://www.w3.org/2000/svg" width="59.163" height="47.01" viewBox="0 0 59.163 47.01"><g id="cnn-turk" transform="translate(0 -0.006)"><path id="Path_1766" data-name="Path 1766" d="M59.807.144H56.551v22.53A1.859,1.859,0,0,1,55.5,24.587c-.1,0-.1.1-.19.1h-.19a1.553,1.553,0,0,1-1.723-.672l-.1-.1v-.1c-6.146-9.871-9.972-16.105-11.607-18.69a.59.59,0,0,0-.57-.291.637.637,0,0,0-.38.672V22.763a1.716,1.716,0,0,1-.963,1.723.1.1,0,0,0-.1.1h-.405a1.829,1.829,0,0,1-1.723-.862c-6.108-9.782-9.947-16.017-11.48-18.6a.59.59,0,0,0-.57-.291.637.637,0,0,0-.38.672V22.763a1.994,1.994,0,0,1-.38,1.052.1.1,0,0,0-.1.1v.1l-.2.2a1.427,1.427,0,0,1-1.052.38H13.595c-.672-.1-1.242-.19-1.825-.291a10.178,10.178,0,0,1-4.98-2.889l-.1-.1a11.718,11.718,0,0,1-2.2-3.839,6.13,6.13,0,0,1-.19-1.343c0-.1,0-.1-.1-.19a10.942,10.942,0,0,1-.1-1.825v-.1A11.655,11.655,0,0,1,5.624,8.165,7.355,7.355,0,0,1,6.676,6.822a.1.1,0,0,1,.1-.1A10.375,10.375,0,0,1,14.659,3.4h4.98V.144H15.331A14.216,14.216,0,0,0,4.4,4.452,13.534,13.534,0,0,0,.847,14.045a13.293,13.293,0,0,0,3.738,9.592,14.449,14.449,0,0,0,11.024,4.41h7.578a5.42,5.42,0,0,0,3.928-1.432A5.447,5.447,0,0,0,28.547,22.5V15.4l5.943,9.871a6.8,6.8,0,0,0,2.686,2.5,5.166,5.166,0,0,0,3.168.482,4.792,4.792,0,0,0,2.686-1.533,5.514,5.514,0,0,0,1.153-3.447V15.413l5.943,9.871a5.656,5.656,0,0,0,2.686,2.5,5.166,5.166,0,0,0,3.168.482,4.792,4.792,0,0,0,2.686-1.533,5.514,5.514,0,0,0,1.153-3.447c-.013-.038-.013-23.138-.013-23.138Zm-5.461,22.91a.545.545,0,0,0,.482.291.5.5,0,0,0,.291-.672V.144H51.85v13.14L46.287,3.6A7.108,7.108,0,0,0,43.221.625a4.809,4.809,0,0,0-3.257-.38,4.476,4.476,0,0,0-2.585,1.723,4.55,4.55,0,0,0-1.052,3.257v8.059L30.676,3.5A7.108,7.108,0,0,0,27.609.524a4.751,4.751,0,0,0-3.257-.38,5.117,5.117,0,0,0-2.7,1.723,6.349,6.349,0,0,0-.862,1.825,7.055,7.055,0,0,0-.19,1.432v13.9a1,1,0,0,1-.963.963H15.331a6.988,6.988,0,0,1-5.183-1.913A6.044,6.044,0,0,1,14.368,7.9h5.17V4.731H14.646A8.909,8.909,0,0,0,7.753,7.62c-.38.482-.672.963-1.052,1.432a10.226,10.226,0,0,0-1.343,4.98,12.924,12.924,0,0,0,.19,1.825c.1.38.19.862.291,1.242a8.555,8.555,0,0,0,1.913,3.257,9.588,9.588,0,0,0,4.308,2.585,6.035,6.035,0,0,0,1.825.291h9.3a1.445,1.445,0,0,0,.57-.19c.19-.1.19-.38.19-.57V5.605A1.745,1.745,0,0,1,25.1,3.781l.1-.1h.291a1.762,1.762,0,0,1,1.825.672c0,.1.1.1.1.19q2.3,3.877,11.506,18.69a.545.545,0,0,0,.482.291.6.6,0,0,0,.291-.672V5.605a1.745,1.745,0,0,1,1.153-1.825l.1-.1h.291a1.762,1.762,0,0,1,1.825.672c0,.1.1.1.1.19,1.2,2.408,5.043,8.642,11.176,18.513Z" transform="translate(-0.657 0)" fill="#cf0125"></path><path id="Path_1767" data-name="Path 1767" d="M0,141.042v16.105H59.062V141.042Zm16.676,2.395h3.066v1.825H16.676Zm-5.081,2.015H8.528v9.2H5.461v-9.2H2.395v-1.913h9.2Zm14.483,5.373a4.569,4.569,0,0,1-.291,1.635,2.851,2.851,0,0,1-.862,1.242,4.992,4.992,0,0,1-1.533.773,7.378,7.378,0,0,1-2.015.291,7.762,7.762,0,0,1-2.5-.38,3.668,3.668,0,0,1-1.635-1.242,4.468,4.468,0,0,1-.57-2.2v-4.7h3.066v4.98a1.509,1.509,0,0,0,.482,1.052,1.43,1.43,0,0,0,1.242.38,1.417,1.417,0,0,0,1.635-1.242v-5.183h2.978Zm0-5.461H23.011v-1.825h3.066Zm12.177,9.2-.672-2.1c-.19-.57-.482-1.153-.672-1.723a1.325,1.325,0,0,0-.57-.672,3.309,3.309,0,0,0-1.052-.19v4.7H32.224V143.551h4.4a11.523,11.523,0,0,1,1.825.19,3.531,3.531,0,0,1,1.343.672,2.7,2.7,0,0,1,.862.963,2.964,2.964,0,0,1,.291,1.242,2.646,2.646,0,0,1-.57,1.635,3.972,3.972,0,0,1-1.723,1.052,2.62,2.62,0,0,1,.773.672,11.267,11.267,0,0,1,.57,1.052l.672,1.635a12,12,0,0,0,.862,1.913c-.013-.013-3.269-.013-3.269-.013Zm15.054,0-3.839-5.373h-.1v5.373H46.3V143.539h3.066v5.373h.1l3.358-5.373h3.066l-3.358,5.271,4.22,5.854H53.309Zm-17.17-9.111h-.963v2.585h.963a1.953,1.953,0,0,0,1.242-.38,1.164,1.164,0,0,0,.482-.963c-.089-.849-.659-1.242-1.723-1.242Z" transform="translate(0 -110.132)" fill="#fff"></path></g></svg>