<svg xmlns="http://www.w3.org/2000/svg" width="130.963" height="48.619" viewBox="0 0 130.963 48.619"><g id="elele" transform="translate(-5445.277 -1878.651)"><path id="Path_20" data-name="Path 20" d="M5612.258,1878.652c-.006.137-.018.273-.018.41V1924.1c0,.486,0,.486.486.486,1.66,0,3.32.007,4.981-.007.292,0,.367.082.365.358-.01.859,0,.859-.875.859q-9.576,0-19.153.007c-.343,0-.465-.068-.452-.425.028-.792.008-.793.839-.793,1.544,0,3.089-.006,4.634,0,.28,0,.4-.038.4-.358q-.015-22.013,0-44.02c0-.28-.074-.357-.365-.355-1.712.014-3.424,0-5.137.013-.291,0-.389-.073-.366-.356s-.007-.572-.013-.858Z" transform="translate(-122.063 0)" fill="#e00081"></path><path id="Path_21" data-name="Path 21" d="M5864.24,1878.652q0,22.78-.009,45.56c0,.328.113.382.417.379,1.686-.014,3.373,0,5.059-.013.292,0,.4.061.394.367-.016.848,0,.848-.893.848q-9.558,0-19.115.011c-.407,0-.486-.114-.475-.477.028-.742.008-.743.771-.743,1.544,0,3.089-.013,4.634.01.372.006.438-.114.438-.441q-.012-18.554-.006-37.107c0-2.245-.012-4.488.011-6.733,0-.4-.123-.466-.5-.462-1.66.019-3.321,0-4.981.015-.291,0-.389-.074-.364-.355s.015-.572.02-.859Z" transform="translate(-324.083)" fill="#e00081"></path><path id="Path_22" data-name="Path 22" d="M5980.489,1963.2a6.515,6.515,0,0,1-.214-1.5,20.632,20.632,0,0,0-2.59-7.806,11.972,11.972,0,0,0-5.507-5.215,15.857,15.857,0,0,0-9.384-.861,14.77,14.77,0,0,0-8.862,5.132,18.662,18.662,0,0,0-4.665,14.427,17.807,17.807,0,0,0,3.422,9.037,16.133,16.133,0,0,0,8.163,6.122,17.73,17.73,0,0,0,7.052.726,12.857,12.857,0,0,0,5.539-1.641,13.128,13.128,0,0,0,6.277-8.94c.1-.458.087-.461-.389-.461-.9,0-.9,0-1.08.884-1.049,5.014-5.974,9.523-11.642,8.77a6.793,6.793,0,0,1-5.494-3.616,15,15,0,0,1-1.312-3.772,41.669,41.669,0,0,1-.875-8.918c0-.359.1-.442.447-.442q10.311.016,20.624.007c.167,0,.334-.007.5-.01v-.926c-.083-.149-.021-.309-.041-.464.021-.153-.043-.315.041-.463Zm-10.026.7c-1.852-.02-3.705-.01-5.559-.01h-5.636c-.217,0-.352-.006-.351-.292a42.811,42.811,0,0,1,.713-8.467,10.414,10.414,0,0,1,2.326-4.833,4.256,4.256,0,0,1,7.042.756,12.405,12.405,0,0,1,1.138,3.619,43.793,43.793,0,0,1,.717,7.658c.005.372.006.746.041,1.117.033.337-.061.455-.431.451Z" transform="translate(-404.26 -56.158)" fill="#e00081"></path><path id="Path_23" data-name="Path 23" d="M5728.656,1964.8c-.061-.961-.092-1.923-.209-2.882a20.754,20.754,0,0,0-2.7-8.127,11.757,11.757,0,0,0-6.92-5.623,16.91,16.91,0,0,0-7.034-.431,13.925,13.925,0,0,0-7.288,2.992,18.561,18.561,0,0,0-7.136,15.891,18.046,18.046,0,0,0,3.867,10.371c4.488,5.831,11.125,7.385,17.356,5.886a12.157,12.157,0,0,0,8.117-6.713,13.5,13.5,0,0,0,1.185-3.532c.046-.231.059-.389-.266-.355-.343.04-.777-.133-1.01.068-.2.179-.18.614-.256.937a.085.085,0,0,1-.006.038c-1.046,4.83-5.9,9.334-11.53,8.624a6.842,6.842,0,0,1-5.856-4.217,22.159,22.159,0,0,1-1.542-6.18,52.311,52.311,0,0,1-.35-5.962c0-.35.1-.4.4-.394q5.2.014,10.389.006t10.39.007C5728.573,1965.2,5728.677,1965.12,5728.656,1964.8Zm-10.021-.842c-1.866-.016-3.73-.008-5.6-.008s-3.73-.006-5.6.006c-.291,0-.376-.051-.369-.377.031-1.58.05-3.16.195-4.734a20.754,20.754,0,0,1,1.158-5.792,8.557,8.557,0,0,1,2.305-3.279,4.212,4.212,0,0,1,6.042.761,9.076,9.076,0,0,1,1.383,3.519,40.189,40.189,0,0,1,.788,6.335c.058,1.052.062,2.106.086,3.158.009.309-.065.41-.4.407Z" transform="translate(-202.212 -56.21)" fill="#e00081"></path><path id="Path_24" data-name="Path 24" d="M5476.461,1962.12a20.769,20.769,0,0,0-2.586-8.087,11.952,11.952,0,0,0-6.361-5.626,16.025,16.025,0,0,0-7.041-.739,14.853,14.853,0,0,0-10.053,4.972,18.562,18.562,0,0,0-4.546,17.491,17.34,17.34,0,0,0,7.037,10.412,15.869,15.869,0,0,0,13.327,2.41c5.442-1.279,8.438-5.032,9.65-10.348.052-.227.009-.335-.256-.315a6.522,6.522,0,0,1-.81,0c-.195-.009-.292.036-.325.261a10.086,10.086,0,0,1-.223,1.054c-1.126,4.635-5.869,9.075-11.516,8.343a6.8,6.8,0,0,1-5.468-3.533,14,14,0,0,1-1.233-3.352,41.675,41.675,0,0,1-1.009-9.444c-.005-.352.1-.42.432-.419,3.45.012,6.9.008,10.351.008s6.927,0,10.39.007c.317,0,.417-.073.407-.4C5476.6,1963.912,5476.563,1963.016,5476.461,1962.12Zm-9.86,1.846c-1.853-.014-3.705-.007-5.559-.007h-5.636c-.21,0-.361.007-.356-.292a43.96,43.96,0,0,1,.77-8.656,9.887,9.887,0,0,1,2.555-4.922,4.225,4.225,0,0,1,6.547.67,10.071,10.071,0,0,1,1.25,3.414,40.957,40.957,0,0,1,.792,6.877c.034.835.035,1.67.07,2.5C5467.051,1963.924,5466.918,1963.969,5466.6,1963.966Z" transform="translate(0 -56.225)" fill="#e00081"></path></g></svg>