<svg xmlns="http://www.w3.org/2000/svg" xmlns:xlink="http://www.w3.org/1999/xlink" width="160.24" height="47.01" viewBox="0 0 160.24 47.01"><defs><clipPath id="clip-path"><rect id="Rectangle_517" data-name="Rectangle 517" width="160.24" height="47.01" transform="translate(0 0)" fill="#fff"></rect></clipPath></defs><g id="elle" transform="translate(0 0)"><g id="Group_886" data-name="Group 886" clip-path="url(#clip-path)"><path id="Path_1759" data-name="Path 1759" d="M3.572,46.328H0v.682H19.787V34.517h-.6s-.025,7.2-2.394,9.569c-2.014,2.015-4.137,2.205-7.617,2.205V23.31s2.4-.171,3.564.991c1.838,1.838,2.017,4.187,2.017,7.431h.634V14.124h-.634c0,3.244-.179,5.594-2.017,7.432-1.162,1.163-3.564.991-3.564.991V.718c3.48,0,5.134.19,7.148,2.205,2.37,2.368,2.4,9.569,2.4,9.569h.6V0H0V.681H3.572Z" fill="#fff" fill-rule="evenodd"></path><path id="Path_1760" data-name="Path 1760" d="M56.217.7V46.291c3.48,0,5.6-.19,7.617-2.205,2.369-2.369,2.393-9.569,2.393-9.569h.6V47.01H47.041v-.682h3.573V.681H47.041V0H59.478V.7Z" fill="#fff" fill-rule="evenodd"></path><path id="Path_1761" data-name="Path 1761" d="M102.875.7V46.291c3.479,0,5.6-.19,7.617-2.205,2.369-2.369,2.394-9.569,2.394-9.569h.6V47.01H93.7v-.682h3.572V.681H93.7V0h12.437V.7Z" fill="#fff" fill-rule="evenodd"></path><path id="Path_1762" data-name="Path 1762" d="M144.025,46.328h-3.572v.682H160.24V34.517h-.6s-.023,7.2-2.392,9.569c-2.016,2.015-4.139,2.205-7.618,2.205V23.31s2.4-.171,3.564.991c1.838,1.838,2.018,4.187,2.018,7.431h.633V14.124h-.633c0,3.244-.18,5.594-2.018,7.432-1.162,1.163-3.564.991-3.564.991V.718c3.479,0,5.134.19,7.149,2.205,2.369,2.368,2.394,9.569,2.394,9.569h.6V0H140.453V.681h3.572Z" fill="#fff" fill-rule="evenodd"></path><path id="Path_1763" data-name="Path 1763" d="M157.45,45.043a1.129,1.129,0,1,1,1.131,1.133,1.129,1.129,0,0,1-1.131-1.133m2.118,0a.989.989,0,1,0-.987.993.982.982,0,0,0,.987-.993m-.435.643h-.181l-.353-.57h-.289v.57h-.14V44.452h.54c.326,0,.438.123.438.326,0,.242-.17.332-.388.338Zm-.581-.709c.176,0,.455.029.455-.2,0-.162-.18-.184-.332-.184h-.365v.385Z" fill="#fff" fill-rule="evenodd"></path></g></g></svg>