<svg xmlns="http://www.w3.org/2000/svg" id="gq" width="88.973" height="47.01" viewBox="0 0 88.973 47.01"><path id="Path_1764" data-name="Path 1764" d="M257.17,17.777a22.856,22.856,0,0,0-.774,3.152c-.081.475-.148.953-.2,1.434a23.108,23.108,0,0,0,.182,5.178,24.057,24.057,0,0,0,4.108,10.409,23.519,23.519,0,0,0,19.5,10.264,21.154,21.154,0,0,0,10.353-2.789l1.5,1.973h14.45l-6.416-8.931A23.817,23.817,0,0,0,304.233,25.4C304.27,10.872,294.1,1.441,279.9,1.418a23.773,23.773,0,0,0-19.435,9.867A23.36,23.36,0,0,0,257.17,17.777Zm33.9,10.1-1.232-1.666H275.183l5.96,8.609a10.267,10.267,0,0,1-11.979-10.015A10.848,10.848,0,0,1,280.182,14.06C286.713,14.1,293.232,21.15,291.075,27.879Z" transform="translate(-217.312 -1.203)" fill="#fff"></path><path id="Path_1765" data-name="Path 1765" d="M43.159,10.065c-.148-.21-.3-.416-.456-.626A23.194,23.194,0,0,0,23.593,0,23.581,23.581,0,0,0,1,16.565c-.034.109-.067.221-.1.33,0,.006,0,.011-.006.017A23.3,23.3,0,0,0,0,23.333a25.163,25.163,0,0,0,.8,6.1,23.615,23.615,0,0,0,12.586,15.1c.05.022.1.048.148.07.031.014.061.028.1.045A25.19,25.19,0,0,0,23.9,46.867,23.723,23.723,0,0,0,42.922,37.1c.089-.123.173-.249.26-.372A23.351,23.351,0,0,0,47.4,23.35a23.613,23.613,0,0,0-.282-3.636H25.454V30.738h5.972c0,.268-3.063,3.244-7.657,3.244-5.055,0-10.775-3.99-10.89-10.384a10.662,10.662,0,0,1,10.89-10.775c4.287.154,5.924,1.378,8.316,3.733l6.975.006h.8c3.146,0,6.134,0,6.5,0a13.921,13.921,0,0,0-.439-1.364A23.659,23.659,0,0,0,43.159,10.065Z" transform="translate(0 0)" fill="#fff"></path></svg>