<svg xmlns="http://www.w3.org/2000/svg" width="142.626" height="47.01" viewBox="0 0 142.626 47.01"><path id="hello" d="M151.975,263.443a6.276,6.276,0,1,1,6.276,6.2,6.239,6.239,0,0,1-6.276-6.2Zm12.48-9.485H152.593V223.865h11.862ZM74.7,223.342v10.6H64.616V239.6h9.176v11.125H64.616V256.5H74.7v11.719H52.969v-44.88ZM88.958,256.5h7.179v11.719H77.025v-44.88H88.958V256.5ZM33.69,239.268H38.4v-15.9H50.045v44.808H38.468l.071-16.663-4.707.071V268.15H21.9V223.342H33.69ZM111.136,256.5h7.179v11.719c0-.071-19.112,0-19.112,0v-44.88H111.16c-.024,0-.024,33.232-.024,33.161Zm36.512-28.383c1.189,1.569,1.64,4.326,1.712,6.8l-.071,19.944c-.143,5.23-3.138,10.816-7.7,12.622-4.564,2.163-11.719,1.783-15.76-1.26a13.875,13.875,0,0,1-5.444-10.911V233.135c.309-3.138,1.949-6.561,4.4-8.058a12.415,12.415,0,0,1,6.2-2.163c4.8-.618,13.145-.689,16.663,5.206Zm-11.054,5.753a2.653,2.653,0,0,0-2.544-.452A2.315,2.315,0,0,0,132.7,235.2v19.564a2.345,2.345,0,0,0,1.5,1.783,2.838,2.838,0,0,0,1.878-.071c.594-.452,1.189-.737,1.189-1.949V235.18a2.549,2.549,0,0,0-.666-1.307Z" transform="translate(-21.9 -222.637)" fill="#d41e14"></path></svg>