<svg xmlns="http://www.w3.org/2000/svg" width="187.089" height="48.619" viewBox="0 0 187.089 48.619"><path id="vogue" d="M-109.992-2149.381a16.769,16.769,0,0,1-7.832-2.057,20.675,20.675,0,0,1-6.269-5.2,26.952,26.952,0,0,1-5.745-17,26.974,26.974,0,0,1,5.3-16.386,21.394,21.394,0,0,1,6.474-5.639,16.865,16.865,0,0,1,8.253-2.207,16.5,16.5,0,0,1,7.764,2.067,20.665,20.665,0,0,1,6.2,5.169,25.372,25.372,0,0,1,4.323,8.011,28.582,28.582,0,0,1,1.438,9,27.038,27.038,0,0,1-5.3,16.369,21.541,21.541,0,0,1-6.42,5.634A16.56,16.56,0,0,1-109.992-2149.381Zm.033-47.789a7.438,7.438,0,0,0-5.651,2.729,18.979,18.979,0,0,0-3.527,6.51,48.051,48.051,0,0,0-2.328,14.3,48.054,48.054,0,0,0,2.334,14.307,19.034,19.034,0,0,0,3.528,6.516,7.426,7.426,0,0,0,5.644,2.732,7.418,7.418,0,0,0,5.637-2.735,19.085,19.085,0,0,0,3.529-6.52,47.983,47.983,0,0,0,2.34-14.3,47.924,47.924,0,0,0-2.34-14.292,19.061,19.061,0,0,0-3.529-6.515A7.418,7.418,0,0,0-109.958-2197.17Zm42.334,47.4a15.3,15.3,0,0,1-7.956-2.17,18.632,18.632,0,0,1-5.774-5.573,26.521,26.521,0,0,1-3.518-7.569,29.5,29.5,0,0,1-1.189-8.156,30.274,30.274,0,0,1,2.271-11.575,24.95,24.95,0,0,1,2.891-5.155,21.117,21.117,0,0,1,4.108-4.233,16.673,16.673,0,0,1,9.9-3.8,11.554,11.554,0,0,1,4.153.966l.967.373a10.337,10.337,0,0,0,3.49.8c1.5,0,2.85-1.006,3.932-1.813h.37v16.185h-.374a28.989,28.989,0,0,0-3.389-9.1c-1.969-3.185-5.214-6.981-9.49-6.981a7.248,7.248,0,0,0-5.741,2.818,17.9,17.9,0,0,0-3.181,6.7,58.5,58.5,0,0,0-1.652,14.482c0,5.04.3,11.6,2.626,17.607a9.7,9.7,0,0,0,2.919,4.368,7.57,7.57,0,0,0,4.826,1.444,10.431,10.431,0,0,0,4.742-1.163,9.017,9.017,0,0,0,3.612-3.26,4.4,4.4,0,0,0,.475-2.372v-12.508h-4.236v-.49H-47.34v.49h-3.627v18.709h-.32a4.821,4.821,0,0,0-4.2-2.524,7.974,7.974,0,0,0-3.812,1.119l-1.051.576A17.58,17.58,0,0,1-67.624-2149.772Zm-76.006-.05v0l-17.03-46.566H-165v-.472h16.489v.472h-4.05l12.3,33.69,10.388-33.69h-4.084v-.472h8.9v.472h-3.932l-14.64,46.566Zm114.44-.186a22.227,22.227,0,0,1-5.583-.7,16.74,16.74,0,0,1-5.029-2.171,10.66,10.66,0,0,1-5.032-9.249v-34.266h-4.523v-.472h16.538v.474h-4.389v35.91a7.662,7.662,0,0,0,.985,3.787,9.17,9.17,0,0,0,2.546,2.847,12.468,12.468,0,0,0,7.33,2.415,10.513,10.513,0,0,0,7.071-2.595A8.985,8.985,0,0,0-16.3-2160.8v-35.59h-5.184v-.473H21.207v16.658h-.321a35.661,35.661,0,0,0-1.234-6.548,15.514,15.514,0,0,0-3.139-5.823c-3.106-3.519-7.4-3.813-11.524-3.813H.364v21.421a26.927,26.927,0,0,0,2.882.169c2.715,0,4.635-.856,5.871-2.618,1.014-1.446,1.555-3.457,1.7-6.33h.424v18.793h-.424a15.225,15.225,0,0,0-2.288-6.335,6.64,6.64,0,0,0-5.694-2.967c-.913,0-1.8.063-2.473.119v22.911h6.93a13.6,13.6,0,0,0,5.25-1.093A14.415,14.415,0,0,0,17-2155.295a14.816,14.816,0,0,0,4.2-7.914,42.4,42.4,0,0,0,.508-5.085h.373v17.539H-11.278v-.474H-7.4v-45.163h-8.2v35.725a9.409,9.409,0,0,1-4.33,8.1A16.676,16.676,0,0,1-29.19-2150.009Z" transform="translate(165 2198)" fill="#fff"></path></svg>